<?xml version="1.0" encoding="UTF-8"?>
<svg id="Layer_1" data-name="Layer 1" xmlns="http://www.w3.org/2000/svg" viewBox="0 0 44 31.95">
  <defs>
    <style>
      .cls-1 {
        fill: #ff8600;
      }
    </style>
  </defs>
  <path class="cls-1" d="m10.5,31.95c-2.87,0-5.33-1.03-7.4-3.1-2.07-2.07-3.1-4.53-3.1-7.4,0-2.6.83-4.89,2.48-6.88,1.57-1.89,3.57-3.06,6-3.51.23-.04.41-.21.46-.44.71-3.06,2.25-5.58,4.62-7.55S18.87,0,22.1,0c3.77,0,6.93,1.36,9.48,4.08s3.83,5.98,3.83,9.78v1.2c2.4-.07,4.43.71,6.1,2.33s2.5,3.66,2.5,6.13c0,2.3-.83,4.28-2.5,5.95s-3.65,2.5-5.95,2.5h-12.05c-.8,0-1.5-.3-2.1-.9s-.9-1.3-.9-2.1v-12.9l-3.75,3.75c-.22.22-.58.22-.8,0l-1.35-1.35c-.22-.22-.22-.58,0-.8l7-7c.22-.22.58-.22.8,0l7,7c.22.22.22.58,0,.8l-1.35,1.35c-.22.22-.58.22-.8,0l-3.75-3.75v12.9h11.66c1.79,0,3.57-.7,4.69-2.1.92-1.15,1.29-2.53,1.1-4.13-.1-.9-.47-1.77-1.03-2.48-1.16-1.46-2.62-2.18-4.37-2.18h-3.15v-4.2c0-2.97-1.01-5.52-3.03-7.65s-4.51-3.2-7.48-3.2-5.47,1.07-7.5,3.2-3.05,4.68-3.05,7.65h-.95c-2.07,0-3.82.73-5.25,2.18-1.43,1.45-2.15,3.24-2.15,5.38s.73,3.84,2.2,5.33c1.46,1.48,3.23,2.23,5.3,2.23h5.83c.65,0,1.17.52,1.17,1.17v.66c0,.65-.52,1.17-1.17,1.17h-5.83Z"/>
</svg>