<?xml version="1.0" encoding="UTF-8"?>
<svg id="Layer_1" data-name="Layer 1" xmlns="http://www.w3.org/2000/svg" viewBox="0 0 40 40">
  <defs>
    <style>
      .cls-1 {
        fill: #ff8600;
      }
    </style>
  </defs>
  <path class="cls-1" d="m27.3,17.35c.75,0,1.39-.26,1.91-.79s.79-1.16.79-1.91-.26-1.39-.79-1.91-1.16-.79-1.91-.79-1.39.26-1.91.79-.79,1.16-.79,1.91.26,1.39.79,1.91,1.16.79,1.91.79Zm-14.6,0c.75,0,1.39-.26,1.91-.79s.79-1.16.79-1.91-.26-1.39-.79-1.91-1.16-.79-1.91-.79-1.39.26-1.91.79-.79,1.16-.79,1.91.26,1.39.79,1.91,1.16.79,1.91.79Zm7.43,13.6c1.83-.02,3.65-.49,5.25-1.37,1.69-.92,3-2.16,3.94-3.7.41-.67-.05-1.53-.83-1.53H11.53c-.76,0-1.26.84-.86,1.49.83,1.35,1.92,2.46,3.28,3.33,1.87,1.21,3.93,1.8,6.18,1.77Zm-.13,9.05c-2.77,0-5.37-.53-7.8-1.58s-4.55-2.48-6.35-4.28-3.23-3.92-4.28-6.35-1.58-5.03-1.58-7.8.53-5.37,1.58-7.8,2.48-4.55,4.28-6.35,3.92-3.23,6.35-4.28,5.03-1.58,7.8-1.58,5.37.53,7.8,1.58,4.55,2.48,6.35,4.28,3.23,3.92,4.28,6.35,1.58,5.03,1.58,7.8-.53,5.37-1.58,7.8-2.48,4.55-4.28,6.35-3.92,3.23-6.35,4.28-5.03,1.58-7.8,1.58Zm0-3c4.75,0,8.77-1.65,12.06-4.94,3.29-3.29,4.94-7.31,4.94-12.06s-1.65-8.77-4.94-12.06c-3.29-3.29-7.31-4.94-12.06-4.94s-8.77,1.65-12.06,4.94c-3.29,3.29-4.94,7.31-4.94,12.06s1.65,8.77,4.94,12.06c3.29,3.29,7.31,4.94,12.06,4.94Z"/>
</svg>