<?xml version="1.0" encoding="UTF-8"?>
<svg id="Layer_1" data-name="Layer 1" xmlns="http://www.w3.org/2000/svg" viewBox="0 0 36 36">
  <defs>
    <style>
      .cls-1 {
        fill: #ff8600;
      }
    </style>
  </defs>
  <path class="cls-1" d="m8.9,34.83v-.67c0-.64.52-1.17,1.17-1.17h6.02c.23,0,.41-.19.41-.41v-6.66c0-.19-.13-.35-.32-.39-2.59-.61-4.75-2.08-6.49-4.42-.44-.59-.59-1.31-.81-2.01-.05-.15-.18-.26-.33-.28-2.44-.32-4.5-1.37-6.17-3.15C.8,13.99,0,11.71,0,9.4v-1.53c0-1.13.28-2.01.91-2.62.58-.56,1.27-.84,2.09-.84h4.79c.23,0,.41-.19.41-.41V1.5c0-.83.67-1.5,1.5-1.5h16.6c.83,0,1.5.67,1.5,1.5v2.48c0,.23.19.41.41.41h4.57c.88,0,1.77.28,2.38.91.56.58.84,1.27.84,2.09v2c0,2.33-.81,4.63-2.42,6.32s-3.71,2.79-6.12,3.11c-.16.02-.29.13-.34.28-.55,1.66-1.49,3.05-2.82,4.18s-2.81,1.86-4.48,2.26c-.19.04-.32.2-.32.39,0,1.19,0,5.35,0,6.67,0,.23.19.41.41.41h6.02c.64,0,1.17.52,1.17,1.17v.67c0,.64-.52,1.16-1.16,1.16h-15.87c-.64,0-1.17-.52-1.17-1.17Zm-.7-19.68v-7.34c0-.23-.19-.41-.41-.41H3.41c-.23,0-.41.19-.41.41v1.79c0,1.5.49,2.81,1.48,3.93.87.98,1.93,1.66,3.2,2.04.26.08.53-.13.53-.41Zm9.8,7.59c1.9,0,3.51-.67,4.83-2s1.98-2.95,1.98-4.85V3.41c0-.23-.19-.41-.41-.41h-12.77c-.23,0-.41.19-.41.41v12.49c0,1.9.66,3.52,1.98,4.85s2.93,2,4.83,2Zm9.8-7.59c0,.27.27.48.53.41,1.27-.38,2.33-1.06,3.2-2.04.98-1.12,1.48-2.43,1.48-3.93v-1.79c0-.23-.19-.41-.41-.41h-4.37c-.23,0-.41.19-.41.41v7.34Z"/>
</svg>