<?xml version="1.0" encoding="UTF-8"?>
<svg id="Layer_1" data-name="Layer 1" xmlns="http://www.w3.org/2000/svg" viewBox="0 0 48 24">
  <defs>
    <style>
      .cls-1 {
        fill: #ff8600;
      }
    </style>
  </defs>
  <path class="cls-1" d="m0,24v-2.65c0-1.29.69-2.33,2.08-3.14,1.38-.81,3.2-1.21,5.44-1.21.41,0,.8,0,1.17.03.37.02.74.05,1.11.11-.27.58-.47,1.16-.6,1.76s-.2,1.21-.2,1.86v3.25H0Zm12,0v-3.25c0-1.07.29-2.04.88-2.93.58-.88,1.41-1.66,2.48-2.33s2.34-1.17,3.83-1.5,3.09-.5,4.83-.5,3.39.17,4.88.5,2.76.83,3.83,1.5,1.88,1.44,2.45,2.33.85,1.86.85,2.93v3.25H12Zm27,0v-3.25c0-.66-.06-1.29-.18-1.87-.12-.59-.31-1.17-.58-1.74.37-.06.74-.09,1.11-.11.37-.02.75-.03,1.14-.03,2.25,0,4.06.4,5.44,1.19,1.38.79,2.06,1.85,2.06,3.16v2.65h-9Zm-24-3h18v-.3c0-1.23-.84-2.24-2.53-3.03s-3.84-1.18-6.48-1.18-4.79.39-6.48,1.18-2.53,1.81-2.53,3.08v.25Zm-7.52-5.5c-.95,0-1.77-.34-2.45-1.03-.68-.69-1.03-1.51-1.03-2.47s.34-1.79,1.03-2.48c.69-.68,1.51-1.03,2.47-1.03s1.79.34,2.48,1.03,1.03,1.52,1.03,2.5-.34,1.77-1.03,2.45-1.52,1.03-2.5,1.03Zm33,0c-.95,0-1.77-.34-2.45-1.03-.68-.69-1.03-1.51-1.03-2.47s.34-1.79,1.03-2.48c.69-.68,1.51-1.03,2.47-1.03s1.79.34,2.48,1.03,1.03,1.52,1.03,2.5-.34,1.77-1.03,2.45-1.52,1.03-2.5,1.03Zm-16.48-3.5c-1.67,0-3.08-.58-4.25-1.75-1.17-1.17-1.75-2.58-1.75-4.25s.58-3.13,1.75-4.28,2.58-1.73,4.25-1.73,3.13.58,4.28,1.73,1.73,2.58,1.73,4.28-.58,3.08-1.73,4.25c-1.15,1.17-2.58,1.75-4.28,1.75Zm.02-3c.85,0,1.57-.29,2.13-.87.57-.58.85-1.3.85-2.15s-.29-1.57-.86-2.13c-.57-.57-1.28-.85-2.13-.85s-1.56.29-2.14.86c-.58.57-.88,1.28-.88,2.13s.29,1.56.87,2.14c.58.58,1.3.88,2.15.88Z"/>
</svg>